<?xml version="1.0" standalone="no"?>
<!DOCTYPE svg PUBLIC "-//W3C//DTD SVG 20010904//EN"
 "http://www.w3.org/TR/2001/REC-SVG-20010904/DTD/svg10.dtd">
<svg version="1.0" xmlns="http://www.w3.org/2000/svg"
 width="1140.000000pt" height="760.000000pt" viewBox="0 0 1140.000000 760.000000"
 preserveAspectRatio="xMidYMid meet">

<g transform="translate(0.000000,760.000000) scale(0.100000,-0.100000)"
fill="#000000" stroke="none">
<path d="M0 3800 l0 -3800 5700 0 5700 0 0 3800 0 3800 -5700 0 -5700 0 0
-3800z m9360 2961 l0 -78 -92 -7 c-116 -8 -306 -8 -347 0 l-31 7 0 78 0 79
235 0 235 0 0 -79z m-82 -158 l82 -6 0 -72 0 -72 -77 -7 c-42 -3 -147 -6 -235
-6 l-158 0 0 80 0 79 108 4 c59 1 127 4 152 5 25 1 82 -1 128 -5z m232 -13 c0
-5 -9 -10 -20 -10 -11 0 -20 -4 -20 -10 0 -5 7 -10 15 -10 8 0 15 -7 15 -15 0
-8 -6 -15 -14 -15 -7 0 -16 -9 -19 -20 -11 -41 -27 -20 -27 35 l0 55 35 0 c19
0 35 -4 35 -10z m280 -24 c0 -30 2 -33 25 -28 14 2 25 8 25 12 0 5 -9 6 -20 3
-25 -7 -27 14 -1 22 32 10 51 -5 51 -40 0 -28 -4 -33 -27 -38 -16 -3 -33 -1
-40 4 -7 6 -13 6 -17 1 -7 -11 -55 -10 -73 1 -20 13 -15 55 7 67 11 6 25 8 30
5 6 -3 10 1 10 9 0 9 7 16 15 16 10 0 15 -10 15 -34z m250 -5 c17 -53 9 -70
-32 -68 -39 2 -53 35 -19 44 12 3 21 9 21 13 0 5 -9 6 -20 3 -17 -5 -18 -3 -7
21 18 38 42 33 57 -13z m-498 -13 c4 -39 22 -44 26 -8 5 37 22 49 23 17 1 -15
2 -35 3 -44 1 -14 -7 -18 -34 -18 -34 0 -35 1 -38 43 -4 49 15 58 20 10z m141
23 c12 -1 4 -71 -8 -72 -5 0 -11 12 -13 26 -4 33 -20 32 -24 -2 -5 -47 -28
-40 -28 10 0 47 1 48 73 38z m261 3 c27 -10 19 -32 -9 -26 -18 3 -25 0 -25
-11 0 -20 16 -31 25 -17 9 15 25 12 25 -4 0 -8 -7 -16 -15 -20 -8 -3 -12 -12
-9 -21 4 -10 0 -15 -11 -15 -9 0 -14 4 -11 9 3 4 -3 19 -14 31 -24 28 -25 43
-4 64 17 18 24 19 48 10z m184 -6 c32 -32 -4 -87 -48 -73 -38 12 -20 85 20 85
9 0 21 -5 28 -12z m-528 -143 c0 -23 -3 -25 -50 -25 -43 0 -50 -3 -50 -20 0
-17 7 -20 40 -20 36 0 40 -3 40 -24 0 -21 -5 -25 -37 -28 -30 -2 -38 -7 -38
-23 0 -17 8 -20 53 -23 48 -3 52 -5 52 -28 0 -24 -1 -24 -85 -24 l-85 0 0 120
0 120 80 0 c79 0 80 0 80 -25z m710 -95 l0 -120 -30 0 c-16 0 -30 5 -30 10 0
7 -6 7 -19 0 -58 -31 -111 4 -111 74 0 75 53 117 111 86 17 -10 19 -7 19 30 0
38 2 40 30 40 l30 0 0 -120z m-445 79 c-4 -6 2 -13 14 -16 24 -6 29 -43 6 -43
-14 0 -17 -12 -17 -55 0 -36 3 -45 17 -45 8 0 15 -9 15 -20 0 -16 -7 -20 -33
-20 -45 0 -57 15 -57 76 0 29 -4 56 -10 59 -5 3 -10 15 -10 26 0 10 5 19 10
19 6 0 10 7 10 15 0 10 10 15 31 15 19 0 28 -4 24 -11z m-114 -29 c29 -16 25
-50 -6 -50 -14 0 -25 5 -25 10 0 6 -9 10 -20 10 -11 0 -20 -4 -20 -9 0 -11 25
-21 50 -21 44 0 65 -57 33 -92 -33 -37 -143 -16 -143 29 0 15 46 18 55 3 8
-13 45 -13 45 -1 0 5 -15 13 -32 16 -65 14 -86 57 -48 95 22 22 78 27 111 10z
m229 -47 c0 -70 11 -93 37 -77 13 8 19 27 21 73 3 60 3 61 32 61 l30 0 0 -89
0 -89 -75 0 c-98 0 -105 7 -105 104 l0 74 30 0 c30 0 30 0 30 -57z m486 49
c22 -15 34 -52 34 -111 l0 -60 -67 0 c-94 0 -103 4 -103 43 0 40 16 55 64 63
21 3 36 11 36 19 0 16 -26 19 -35 4 -8 -13 -65 -13 -65 0 0 5 10 18 22 30 22
20 91 28 114 12z m114 -9 c0 -15 1 -15 18 0 28 25 42 21 42 -13 0 -22 -5 -30
-18 -30 -30 0 -42 -21 -42 -72 0 -47 -1 -48 -30 -48 l-30 0 0 83 c0 46 3 87 7
90 14 14 53 7 53 -10z m-1220 -83 l0 -80 -235 0 -235 0 0 80 0 80 235 0 235 0
0 -80z m-5955 -1625 c275 -69 448 -237 515 -499 11 -44 20 -92 20 -108 l0 -28
-181 2 -182 3 -17 60 c-60 214 -202 325 -418 325 -113 0 -213 -38 -296 -111
-136 -120 -197 -298 -197 -569 0 -218 33 -353 117 -481 51 -77 110 -129 191
-167 53 -25 68 -27 183 -27 115 0 130 2 183 27 105 49 193 163 227 296 l17 65
179 -2 c98 -1 181 -5 183 -7 9 -8 -28 -168 -51 -225 -115 -288 -422 -453 -808
-436 -332 16 -579 175 -716 463 -74 154 -89 234 -89 479 0 189 2 219 24 300
80 304 282 532 551 620 103 34 165 43 316 44 130 1 165 -2 249 -24z m1891 5
c151 -31 247 -78 348 -169 109 -99 186 -255 210 -428 l6 -43 -185 0 -185 0 -5
28 c-15 66 -49 151 -82 200 -64 94 -167 149 -300 159 -281 22 -485 -171 -533
-502 -20 -140 -10 -331 25 -468 46 -181 180 -333 327 -373 79 -21 203 -18 282
6 119 37 219 155 261 308 l18 62 182 0 182 0 -8 -54 c-21 -160 -77 -275 -189
-386 -132 -133 -269 -195 -483 -220 -534 -63 -920 239 -987 774 -16 125 -7
320 19 438 82 360 345 620 689 678 95 16 312 11 408 -10z m3339 5 c190 -40
347 -171 430 -359 64 -145 95 -335 95 -583 0 -467 -127 -760 -382 -881 -101
-48 -146 -59 -269 -68 -386 -25 -638 162 -733 544 -54 220 -57 566 -7 793 67
302 224 484 473 549 92 24 291 26 393 5z m-1225 -160 l0 -145 -423 0 -423 0
-33 -246 c-18 -135 -31 -248 -28 -250 2 -3 21 20 42 50 43 64 107 97 219 117
89 15 243 6 327 -21 192 -59 332 -216 375 -420 22 -104 14 -300 -15 -390 -42
-127 -123 -228 -247 -310 -140 -92 -290 -127 -493 -117 -206 11 -335 61 -446
172 -95 94 -139 188 -160 343 l-7 52 184 0 183 0 17 -70 c21 -88 59 -146 122
-184 42 -27 59 -31 140 -34 75 -3 101 0 148 17 118 45 188 152 196 300 10 181
-57 317 -181 371 -72 32 -192 33 -258 3 -61 -27 -120 -82 -150 -138 l-24 -45
-172 0 -172 0 4 28 c3 15 30 236 60 492 30 256 58 489 61 518 l6 52 574 0 574
0 0 -145z m-2840 -2315 c0 -136 -2 -160 -15 -160 -8 0 -15 7 -15 17 0 15 -1
15 -18 0 -28 -25 -94 -22 -120 6 -43 46 -37 158 11 192 28 19 77 19 105 -1
l22 -15 0 60 c0 48 3 61 15 61 13 0 15 -24 15 -160z m1960 0 c0 -103 -4 -160
-10 -160 -6 0 -13 7 -16 15 -5 13 -8 13 -21 0 -20 -21 -86 -19 -112 3 -45 36
-48 141 -5 187 28 30 87 34 116 8 17 -15 18 -14 18 45 0 48 3 62 15 62 13 0
15 -24 15 -160z m2030 0 c0 -153 -1 -160 -20 -160 -19 0 -20 7 -20 160 0 153
1 160 20 160 19 0 20 -7 20 -160z m-5613 119 c56 -52 68 -135 31 -209 -27 -54
-56 -70 -124 -70 -86 0 -134 56 -134 157 0 98 61 158 153 150 32 -3 56 -12 74
-28z m5503 11 c0 -11 -6 -20 -14 -20 -18 0 -29 16 -21 30 11 18 35 11 35 -10z
m-3410 -49 l0 -59 73 -4 c39 -3 75 -3 80 -1 4 2 7 31 7 64 0 46 3 59 15 59 13
0 15 -23 15 -150 0 -127 -2 -150 -15 -150 -12 0 -15 14 -15 70 l0 70 -80 0
-80 0 0 -70 c0 -63 -2 -70 -20 -70 -19 0 -20 7 -20 150 0 143 1 150 20 150 18
0 20 -7 20 -59z m1920 -63 l80 -123 0 123 c0 109 2 122 18 122 16 0 17 -13 14
-150 -4 -194 -9 -195 -118 -28 l-79 123 -3 -123 c-2 -99 -5 -122 -17 -122 -13
0 -15 25 -15 150 0 143 1 150 20 150 14 0 42 -33 100 -122z m745 97 c31 -30
32 -59 2 -89 l-23 -23 29 -26 c25 -23 29 -32 23 -59 -11 -57 -36 -72 -126 -76
l-80 -4 0 151 0 151 75 0 c67 0 79 -3 100 -25z m-4387 -66 c3 -14 -4 -16 -41
-12 -38 5 -47 2 -61 -18 -21 -30 -21 -98 0 -128 14 -19 24 -22 60 -19 37 3 44
0 44 -14 0 -15 -9 -18 -50 -18 -40 0 -56 5 -75 24 -49 49 -41 161 13 191 36
20 106 16 110 -6z m92 -67 c0 -97 7 -112 54 -112 53 0 66 23 66 117 0 75 2 84
18 81 15 -3 17 -18 20 -116 3 -107 2 -112 -18 -112 -11 0 -20 7 -20 16 0 14
-1 14 -16 0 -9 -10 -33 -16 -58 -16 -64 0 -80 23 -85 121 -4 88 1 109 24 109
12 0 15 -16 15 -88z m260 66 l0 -21 23 21 c27 26 77 30 77 7 0 -10 -10 -15
-28 -15 -48 0 -66 -31 -71 -121 -2 -59 -7 -79 -17 -79 -11 0 -14 23 -14 115 0
96 3 115 15 115 9 0 15 -9 15 -22z m270 12 c23 -14 5 -23 -52 -24 -46 -1 -53
-4 -53 -21 0 -14 15 -27 53 -45 75 -36 92 -70 52 -110 -26 -26 -127 -29 -137
-5 -8 23 -1 26 36 15 42 -12 81 3 81 30 0 15 -15 27 -57 48 -51 24 -58 31 -61
59 -2 23 3 35 20 47 25 17 94 21 118 6z m241 -19 c25 -25 29 -37 29 -84 0 -45
-5 -61 -26 -86 -22 -27 -33 -31 -73 -31 -56 0 -86 25 -102 84 -31 111 93 195
172 117z m601 18 c20 -11 48 -65 48 -94 0 -12 -15 -15 -81 -15 l-81 0 7 -27
c12 -48 24 -55 87 -51 41 3 58 1 58 -8 0 -16 -24 -24 -75 -24 -81 0 -127 67
-105 151 18 65 86 98 142 68z m674 -3 c16 -12 20 -29 22 -115 3 -87 2 -101
-12 -101 -9 0 -16 7 -16 16 0 14 -2 14 -22 0 -26 -18 -80 -21 -109 -6 -14 8
-19 21 -19 50 0 48 22 65 93 75 45 7 48 9 45 34 -3 24 -7 26 -53 27 -71 2 -72
3 -51 19 25 19 96 19 122 1z m121 -5 c5 -19 5 -19 24 0 21 21 83 27 77 7 -3
-7 -16 -14 -31 -16 -47 -6 -67 -45 -67 -128 0 -59 -3 -74 -15 -74 -12 0 -15
19 -15 115 0 77 4 115 11 115 6 0 13 -9 16 -19z m177 -73 c17 -48 34 -89 36
-92 3 -2 20 38 39 90 26 73 37 94 52 94 17 0 16 -4 -7 -67 -14 -38 -34 -88
-43 -113 -11 -31 -23 -46 -38 -48 -18 -3 -26 11 -62 103 -46 120 -48 128 -25
123 11 -2 28 -34 48 -90z m324 76 c20 -14 22 -23 22 -115 0 -94 -8 -119 -28
-83 -8 14 -10 14 -21 0 -18 -21 -89 -21 -113 1 -26 24 -23 68 7 91 14 11 48
23 75 27 52 7 60 18 36 50 -11 15 -21 17 -60 12 -36 -5 -46 -4 -46 7 0 27 93
35 128 10z m122 -6 l0 -21 23 21 c27 26 77 30 77 7 0 -9 -9 -15 -25 -15 -48 0
-65 -31 -65 -120 0 -73 -2 -80 -20 -80 -19 0 -20 7 -20 115 0 96 3 115 15 115
9 0 15 -9 15 -22z m1101 12 c56 -31 66 -153 15 -197 -32 -28 -95 -31 -131 -7
-53 34 -57 139 -8 188 28 28 86 36 124 16z m529 -12 l0 -21 23 21 c27 26 77
30 77 7 0 -9 -9 -15 -24 -15 -13 0 -34 -9 -47 -19 -21 -17 -24 -30 -27 -100
-3 -61 -8 -81 -18 -81 -11 0 -14 23 -14 115 0 96 3 115 15 115 9 0 15 -9 15
-22z m290 2 c17 -17 20 -33 20 -115 0 -78 -3 -95 -15 -95 -8 0 -15 7 -15 17 0
15 -1 15 -18 0 -24 -22 -95 -22 -116 -1 -9 8 -16 31 -16 49 0 43 25 60 98 70
54 7 62 17 38 50 -11 15 -21 17 -60 12 -36 -5 -46 -4 -46 7 0 32 100 36 130 6z
m220 10 c23 -15 3 -25 -53 -25 -45 0 -52 -3 -52 -20 0 -14 15 -27 54 -46 60
-28 78 -57 59 -92 -16 -32 -27 -37 -85 -37 -42 0 -54 4 -63 20 -10 19 -9 20
17 14 15 -3 34 -7 41 -10 23 -7 62 15 62 36 0 15 -15 27 -57 48 -48 22 -59 32
-61 55 -5 44 22 67 77 67 25 0 53 -4 61 -10z m110 -105 c0 -108 -1 -115 -20
-115 -19 0 -20 7 -20 108 0 110 3 122 27 122 10 0 13 -26 13 -115z m-1802 -89
c2 -10 -1 -23 -7 -29 -16 -16 -44 14 -35 37 8 22 38 17 42 -8z m2020 0 c2 -10
-1 -23 -8 -30 -14 -14 -41 19 -33 40 8 20 37 13 41 -10z"/>
<path d="M9734 6546 c-4 -10 -2 -22 4 -28 8 -8 13 -7 18 6 4 10 2 22 -4 28 -8
8 -13 7 -18 -6z"/>
<path d="M9820 6520 c0 -5 5 -10 10 -10 6 0 10 5 10 10 0 6 -4 10 -10 10 -5 0
-10 -4 -10 -10z"/>
<path d="M10000 6519 c0 -5 5 -7 10 -4 6 3 10 8 10 11 0 2 -4 4 -10 4 -5 0
-10 -5 -10 -11z"/>
<path d="M10084 6546 c-6 -17 2 -36 17 -36 12 0 12 37 -1 45 -6 3 -13 -1 -16
-9z"/>
<path d="M10191 6336 c-17 -20 -10 -67 12 -80 15 -9 21 -7 33 8 18 26 18 51
-2 70 -19 20 -28 20 -43 2z"/>
<path d="M10387 6274 c-10 -11 3 -24 24 -24 10 0 19 7 19 15 0 15 -31 21 -43
9z"/>
<path d="M8360 4405 c-133 -42 -206 -192 -231 -478 -14 -153 -7 -382 16 -507
22 -128 60 -222 111 -279 53 -59 102 -80 192 -82 178 -4 270 120 313 419 16
115 6 523 -15 617 -29 130 -56 186 -115 246 -42 42 -67 58 -103 67 -60 15
-111 14 -168 -3z"/>
<path d="M4426 2218 c-9 -12 -16 -41 -16 -63 0 -55 22 -85 64 -85 45 0 61 22
61 85 0 29 -6 59 -14 68 -20 25 -76 22 -95 -5z"/>
<path d="M6386 2218 c-22 -31 -20 -100 2 -128 43 -53 112 -13 112 64 0 57 -22
86 -65 86 -24 0 -39 -7 -49 -22z"/>
<path d="M2811 2306 c-36 -20 -50 -54 -51 -119 0 -52 3 -62 29 -88 38 -38 97
-40 137 -6 32 28 43 103 24 162 -18 55 -86 80 -139 51z"/>
<path d="M7562 2263 l3 -48 47 1 c52 0 78 16 78 48 0 34 -20 46 -78 46 l-53 0
3 -47z"/>
<path d="M7560 2125 l0 -55 48 0 c56 0 92 21 92 55 0 39 -25 55 -86 55 l-54 0
0 -55z"/>
<path d="M4060 2225 c-21 -26 -25 -101 -6 -130 13 -20 25 -25 56 -25 36 0 42
4 56 34 19 38 13 96 -12 121 -20 19 -78 20 -94 0z"/>
<path d="M4686 2218 c-9 -12 -16 -26 -16 -30 0 -5 27 -8 60 -8 62 0 68 5 50
41 -15 28 -74 26 -94 -3z"/>
<path d="M5350 2132 c-43 -35 -6 -79 50 -60 29 11 40 25 40 56 0 18 -5 22 -34
22 -19 0 -44 -8 -56 -18z"/>
<path d="M5978 2139 c-26 -15 -23 -58 4 -68 30 -11 55 -3 73 22 27 39 19 57
-22 57 -21 0 -46 -5 -55 -11z"/>
<path d="M7196 2218 c-9 -12 -16 -41 -16 -63 0 -56 22 -85 65 -85 38 0 65 21
66 53 4 84 -15 117 -67 117 -23 0 -38 -7 -48 -22z"/>
<path d="M8010 2130 c-33 -33 -19 -63 30 -63 36 0 56 17 65 56 7 26 6 27 -34
27 -28 0 -47 -6 -61 -20z"/>
</g>
</svg>
